<svg width="26" height="24" viewBox="0 0 26 24" fill="none" xmlns="http://www.w3.org/2000/svg">
<g opacity="0.8">
<path fill-rule="evenodd" clip-rule="evenodd" d="M6.03313 11.3436L8.04418 5.31043H10.6454L12.6564 11.3436L18.6896 13.3546V15.9558L12.6564 17.9669L10.6454 24H8.04418L6.03313 17.9669L0 15.9558V13.3546L6.03313 11.3436ZM9.34479 10.0793L8.41758 12.8609L7.55051 13.728L4.7689 14.6552L7.55051 15.5824L8.41758 16.4495L9.34479 19.2311L10.272 16.4495L11.1391 15.5824L13.9207 14.6552L11.1391 13.728L10.272 12.8609L9.34479 10.0793Z" fill="#FF0000"/>
<path fill-rule="evenodd" clip-rule="evenodd" d="M18.4626 3.20859L19.5321 0H21.0928L22.1624 3.20859L25.371 4.27812V5.83885L22.1624 6.90838L21.0928 10.117H19.5321L18.4626 6.90838L15.254 5.83885V4.27812L18.4626 3.20859Z" fill="#FF0000"/>
</g>
</svg>
