<svg width="142" height="30" viewBox="0 0 142 30" fill="none" xmlns="http://www.w3.org/2000/svg">
<g clip-path="url(#clip0_3776_17387)">
<path d="M15.4423 5.23073V29.5659H9.3641V5.23073H0.000976562V2.99609H24.9395V5.23073H15.4423Z" fill="#F08E80"/>
<path d="M33.0174 27.6304C32.3759 28.4267 31.5507 29.0552 30.6126 29.462C29.6745 29.8688 28.6516 30.0416 27.6319 29.9656C24.5705 29.9656 22.3135 28.5913 22.3135 25.5745C22.3135 22.122 24.928 20.7142 29.1515 19.9879L33.0174 19.3399V17.3287C33.0323 16.8236 32.9397 16.3211 32.7456 15.8545C32.5515 15.3879 32.2604 14.9679 31.8917 14.6224C31.5229 14.2769 31.0849 14.0138 30.6067 13.8504C30.1285 13.6871 29.621 13.6273 29.1179 13.6751C28.6076 13.6293 28.0932 13.686 27.6051 13.8419C27.117 13.9978 26.665 14.2497 26.2756 14.5828C25.8863 14.9159 25.5675 15.3235 25.338 15.7817C25.1085 16.2398 24.9729 16.7392 24.9392 17.2505H23.5649C23.8107 13.1499 26.5369 11.0605 30.9615 11.0605C36.1571 11.0605 38.6487 14.0773 38.6487 18.379V29.5522H33.0621L33.0174 27.6304ZM33.0174 24.8929V21.4069L31.1291 21.7309C28.8386 22.1667 27.5425 23.0159 27.5425 25.1499C27.5205 25.4887 27.5733 25.8281 27.6971 26.1441C27.821 26.4602 28.0129 26.7451 28.2592 26.9786C28.5056 27.2122 28.8003 27.3886 29.1225 27.4955C29.4447 27.6023 29.7865 27.6369 30.1235 27.5969C30.8546 27.583 31.5548 27.2992 32.0891 26.8C32.6234 26.3007 32.9541 25.6214 33.0174 24.8929Z" fill="#F08E80"/>
<path d="M49.9108 26.3017V29.5642H44.3242V0H49.9108V14.838C50.5193 13.6932 51.429 12.7365 52.5415 12.0709C53.654 11.4053 54.9272 11.0563 56.2237 11.0615C61.2069 11.0615 64.5812 15.4078 64.5812 20.5475C64.5812 25.6871 61.1622 29.9665 55.8214 29.9665C54.5953 29.9546 53.3959 29.6066 52.3537 28.9605C51.3116 28.3143 50.4666 27.3947 49.9108 26.3017ZM54.8158 27.352C57.2292 27.352 58.76 25.5419 58.76 20.5475C58.76 15.5531 57.2292 13.5866 54.7823 13.5866C52.3354 13.5866 49.9108 15.8212 49.9108 20.5028C49.9108 25.1844 52.3242 27.352 54.8158 27.352Z" fill="#F08E80"/>
<path d="M74.8043 29.5643H69.2177V3.8147e-05H74.8043V29.5643Z" fill="#F08E80"/>
<path d="M89.2852 30.0001C83.4528 30.0001 79.3522 26.6482 79.3522 20.637C79.3128 19.3821 79.5283 18.1322 79.9857 16.963C80.4431 15.7937 81.1329 14.7294 82.0133 13.8343C82.8938 12.9393 83.9466 12.232 85.1081 11.7555C86.2697 11.2789 87.5158 11.0428 88.7712 11.0616C94.5925 11.0616 97.6092 14.8828 97.6092 20.5923H85.274C85.3969 25.6985 87.9221 27.1845 90.626 27.1845C92.6707 27.1845 95.2852 26.3465 95.8439 23.5644H97.4193C97.1735 26.9052 94.2126 30.0001 89.2852 30.0001ZM85.274 18.5364H92.0673C92.0673 14.7599 90.7489 13.1063 88.8159 13.1063C87.1176 13.1063 85.5869 14.4359 85.274 18.5364Z" fill="#F08E80"/>
<path d="M101.519 29.5649V27.7884L105.866 22.8052C107.877 20.5147 112.257 16.0119 112.257 9.73255C112.257 6.3806 110.57 4.95043 108.19 4.95043C105.374 4.95043 103.609 6.91691 103.408 10.9393H101.318C101.676 5.83311 104.57 2.61523 109.687 2.61523C115.274 2.61523 118.369 5.38618 118.369 10.0566C118.369 14.4029 116.033 16.4476 107.754 24.0119H119.251V29.5985L101.519 29.5649Z" fill="#F08E80"/>
<path d="M123.642 29.5649V27.7884L127.989 22.8052C129.966 20.5147 134.436 16.0119 134.436 9.73255C134.436 6.3806 132.748 4.95043 130.369 4.95043C127.553 4.95043 125.788 6.91691 125.586 10.9393H123.497C123.855 5.83311 126.748 2.61523 131.855 2.61523C137.441 2.61523 140.547 5.38618 140.547 10.0566C140.547 14.4029 138.212 16.4476 129.933 24.0119H141.43V29.5985L123.642 29.5649Z" fill="#F08E80"/>
</g>
<defs>
<clipPath id="clip0_3776_17387">
<rect width="141.385" height="30" fill="white"/>
</clipPath>
</defs>
</svg>
